<svg width="18.000000" height="18.000000" viewBox="0 0 18 18" fill="none" xmlns="http://www.w3.org/2000/svg" xmlns:xlink="http://www.w3.org/1999/xlink">
	<desc>
			Created with Pixso.
	</desc>
	<defs>
		<clipPath id="clip21_352">
			<rect id="caret-circle-down 1" width="18.000000" height="18.000000" transform="translate(18.000000 0.000000) rotate(90.000000)" fill="white" fill-opacity="0"/>
		</clipPath>
	</defs>
	<rect id="caret-circle-down 1" width="18.000000" height="18.000000" transform="translate(18.000000 0.000000) rotate(90.000000)" fill="#FFFFFF" fill-opacity="0"/>
	<g clip-path="url(#clip21_352)">
		<path id="Vector" d="M17.71 9C17.71 4.18 13.81 0.28 9 0.28C4.18 0.28 0.28 4.18 0.28 9C0.28 13.81 4.18 17.71 9 17.71C13.81 17.71 17.71 13.81 17.71 9ZM9 16.59C4.82 16.59 1.4 13.21 1.4 9C1.4 4.82 4.78 1.4 9 1.4C13.17 1.4 16.59 4.78 16.59 9C16.59 13.17 13.21 16.59 9 16.59ZM10.12 12.37L6.75 9L10.12 5.62L10.12 12.37ZM11.25 5.62C11.25 4.62 10.03 4.12 9.33 4.83L5.95 8.2C5.51 8.64 5.51 9.35 5.95 9.79L9.33 13.17C10.03 13.87 11.25 13.38 11.25 12.37L11.25 5.62Z" fill="#000000" fill-opacity="1.000000" fill-rule="nonzero"/>
	</g>
</svg>
