<svg width="20.000000" height="16.000000" viewBox="0 0 20 16" fill="none" xmlns="http://www.w3.org/2000/svg" xmlns:xlink="http://www.w3.org/1999/xlink">
	<desc>
			Created with Pixso.
	</desc>
	<defs>
		<clipPath id="clip21_325">
			<rect id="graduation-cap 1" width="20.000000" height="16.000000" fill="white" fill-opacity="0"/>
		</clipPath>
	</defs>
	<rect id="graduation-cap 1" width="20.000000" height="16.000000" fill="#FFFFFF" fill-opacity="0"/>
	<g clip-path="url(#clip21_325)">
		<path id="Vector" d="M19.12 4.81L10.84 2.13C10.29 1.95 9.7 1.95 9.15 2.13L0.87 4.81C0.34 4.98 0 5.44 0 6C0 6.55 0.34 7.01 0.86 7.18L1.79 7.48C1.69 7.68 1.61 7.88 1.56 8.1C1.23 8.26 1 8.6 1 9C1 9.39 1.23 9.73 1.57 9.89L1 13.39C0.95 13.7 1.13 14 1.36 14L2.63 14C2.86 14 3.04 13.7 2.99 13.39L2.42 9.89C2.76 9.73 3 9.39 3 9C3 8.66 2.82 8.38 2.58 8.2C2.62 8.06 2.69 7.93 2.78 7.8L4.45 8.34L4 12C4 13.1 6.68 14 10 14C13.31 14 16 13.1 16 12L15.54 8.34L19.12 7.18C19.65 7.01 20 6.55 20 6C20 5.44 19.65 4.98 19.12 4.81ZM14.98 11.93C14.64 12.28 12.93 13 10 13C7.06 13 5.35 12.28 5.01 11.93L5.42 8.66L9.15 9.86C9.23 9.89 9.95 10.15 10.84 9.86L14.57 8.66L14.98 11.93ZM18.82 6.23L10.54 8.91C10.18 9.02 9.81 9.02 9.45 8.91L3.97 7.13L10.09 5.99C10.36 5.94 10.54 5.67 10.49 5.4C10.44 5.13 10.17 4.95 9.9 5L3.54 6.2C3.15 6.27 2.8 6.44 2.5 6.66L1.17 6.23C0.93 6.15 0.94 5.83 1.17 5.76L9.45 3.08C9.93 2.93 10.32 3.01 10.53 3.08L18.82 5.76C19.05 5.83 19.06 6.15 18.82 6.23Z" fill="#000000" fill-opacity="1.000000" fill-rule="nonzero"/>
	</g>
</svg>
