<svg width="17.000000" height="17.000000" viewBox="0 0 17 17" fill="none" xmlns="http://www.w3.org/2000/svg" xmlns:xlink="http://www.w3.org/1999/xlink">
	<desc>
			Created with Pixso.
	</desc>
	<defs>
		<clipPath id="clip21_328">
			<rect id="sign-out-alt 1" width="17.000000" height="17.000000" fill="white" fill-opacity="0"/>
		</clipPath>
	</defs>
	<rect id="sign-out-alt 1" width="17.000000" height="17.000000" fill="#FFFFFF" fill-opacity="0"/>
	<g clip-path="url(#clip21_328)">
		<path id="Vector" d="M5.31 7.2C5.31 6.91 5.55 6.67 5.84 6.67L10.62 6.67L10.62 3.55C10.62 3.32 10.91 3.2 11.07 3.37L15.77 8.12C15.98 8.33 15.98 8.66 15.77 8.87L11.07 13.62C10.91 13.79 10.62 13.67 10.62 13.43L10.62 10.31L5.84 10.31C5.55 10.31 5.31 10.08 5.31 9.78L5.31 7.2ZM4.25 7.2L4.25 9.78C4.25 10.66 4.96 11.38 5.84 11.38L9.56 11.38L9.56 13.43C9.56 14.61 10.99 15.21 11.82 14.37L16.53 9.62C17.15 9 17.15 7.99 16.53 7.37L11.82 2.61C10.99 1.78 9.56 2.37 9.56 3.55L9.56 5.61L5.84 5.61C4.96 5.61 4.25 6.33 4.25 7.2ZM0 3.71L0 13.28C0 14.16 0.71 14.87 1.59 14.87L5.97 14.87C6.19 14.87 6.37 14.69 6.37 14.47L6.37 14.21C6.37 13.99 6.19 13.81 5.97 13.81L1.59 13.81C1.3 13.81 1.06 13.57 1.06 13.28L1.06 3.71C1.06 3.42 1.3 3.18 1.59 3.18L5.97 3.18C6.19 3.18 6.37 3 6.37 2.78L6.37 2.52C6.37 2.3 6.19 2.12 5.97 2.12L1.59 2.12C0.71 2.12 0 2.83 0 3.71Z" fill="#000000" fill-opacity="1.000000" fill-rule="nonzero"/>
	</g>
</svg>
