<svg width="15.000000" height="19.000000" viewBox="0 0 15 19" fill="none" xmlns="http://www.w3.org/2000/svg" xmlns:xlink="http://www.w3.org/1999/xlink">
	<desc>
			Created with Pixso.
	</desc>
	<defs/>
	<path id="Vector" d="M12.6 10.37L1.39 10.37C0.15 10.37 -0.48 11.85 0.41 12.72L6.01 18.22C6.55 18.75 7.44 18.75 7.99 18.22L13.59 12.72C14.46 11.85 13.84 10.37 12.6 10.37ZM7 17.25L1.39 11.75L12.6 11.75L7 17.25ZM1.39 7.62L12.6 7.62C13.84 7.62 14.47 6.14 13.58 5.27L7.98 -0.23C7.44 -0.76 6.55 -0.76 6 -0.23L0.4 5.27C-0.47 6.14 0.15 7.62 1.39 7.62ZM7 0.75L12.6 6.25L1.39 6.25L7 0.75Z" fill="#FEAF00" fill-opacity="1.000000" fill-rule="nonzero"/>
</svg>
