<svg width="17.000000" height="20.000000" viewBox="0 0 17 20" fill="none" xmlns="http://www.w3.org/2000/svg" xmlns:xlink="http://www.w3.org/1999/xlink">
	<desc>
			Created with Pixso.
	</desc>
	<defs/>
	<path id="Vector" d="M7.5 18.75C8.17 18.75 8.71 18.18 8.71 17.49L9.92 17.49C9.92 18.87 8.83 20 7.5 20C6.16 20 5.07 18.87 5.07 17.49L6.28 17.49C6.28 18.18 6.83 18.75 7.5 18.75ZM-0.45 13.07C0.61 12.03 1.42 10.95 1.42 7.26C1.42 4.15 3.83 1.61 6.89 1.31L6.89 0.62C6.89 0.27 7.16 0 7.5 0C7.83 0 8.1 0.27 8.1 0.62L8.1 1.31C11.16 1.61 13.57 4.15 13.57 7.26C13.57 10.95 14.38 12.03 15.44 13.07C15.97 13.59 16.14 14.38 15.87 15.07C15.59 15.79 14.93 16.25 14.17 16.25L0.82 16.25C0.06 16.25 -0.6 15.79 -0.88 15.07C-1.15 14.38 -0.98 13.59 -0.45 13.07ZM0.82 15L14.17 15C14.71 15 14.98 14.35 14.6 13.98C13.28 12.68 12.35 11.23 12.35 7.26C12.35 4.63 10.18 2.5 7.5 2.5C4.81 2.5 2.64 4.62 2.64 7.26C2.64 11.22 1.72 12.67 0.39 13.98C0.01 14.35 0.28 15 0.82 15Z" fill="#000000" fill-opacity="1.000000" fill-rule="nonzero"/>
</svg>
